<?xml version="1.0" encoding="utf-8"?>
<!-- Generator: Adobe Illustrator 19.0.0, SVG Export Plug-In . SVG Version: 6.00 Build 0)  -->
<svg version="1.1" id="Layer_1" xmlns="http://www.w3.org/2000/svg" xmlns:xlink="http://www.w3.org/1999/xlink" x="0px" y="0px"
	 viewBox="0 0 360 360" style="enable-background:new 0 0 360 360;" xml:space="preserve">
<style type="text/css">
	.st0{opacity:0.3;}
	.st1{fill:none;stroke:#FFFFFF;stroke-width:3;}
	.st2{fill:#39B54A;}
</style>
<g class="st0">
	<g>
		<g>
			<g>
				<path class="st1" d="M249.2,214c-1-6.4-3.5-12.8-7.5-19.1c-4.1-6.3-9.7-12.6-16.8-18.8c-4.1-3.7-10.7-8.7-19.7-15.1L224.5,91
					c11,4.8,19.5,10.6,25.4,17.3c3.8,4.7,5.3,8.2,4.7,10.5c-0.4,1.6-2.6,2.5-6.5,2.8c-9.5,0.9-15.3,5.3-17.5,13.2
					c-1.3,4.8-0.8,9.1,1.5,13.1c2.3,4,5.9,6.7,10.6,8c4.9,1.4,9.5,0.8,13.6-1.9c4.1-2.6,6.9-6.6,8.4-11.8
					c2.8-10.1,0.4-20.6-7.3-31.5c-2.4-3.5-5.3-6.7-8.6-9.8c-3.3-3.1-6.9-5.7-10.6-8c-3.2-1.9-7.4-4-12.5-6.4l3.6-12.8l-11-3.1
					l-3.3,11.9c-1.3-0.4-2.8-0.8-4.4-1.3c-4.5-1.2-8.4-2.2-11.8-2.8l3.4-12.3l-11-3.1l-3.9,14.1c-5.5-0.1-10.4,0.2-14.8,0.9
					c-5.4,0.8-10.6,2.3-15.7,4.4c-5.1,2.3-9.6,5.1-13.6,8.3c-4,3.2-7.3,6.9-9.9,10.9c-2.6,4-4.6,8.3-5.8,12.8
					c-3.2,11.4-1.9,22.2,3.8,32.4c5.3,9.4,14.8,19.2,28.5,29.2l-22.1,79.8c-8.4-3.3-15.5-7.3-21.3-12.1c-4.8-3.6-6.8-6.7-6.1-9.1
					c0.5-1.9,3.1-3.4,7.7-4.4c4.8-1.2,8.4-2.8,10.8-5c2.5-2.1,4.2-5,5.2-8.6c1.5-5.3,1-10-1.4-14.3c-2.4-4.3-6.1-7.2-11.3-8.6
					c-5.8-1.6-10.9-1-15.5,1.7c-4.6,2.7-7.7,7.1-9.3,13c-2.7,9.8-0.9,19.4,5.6,28.8c3.9,5.3,8.5,9.7,14,13.5
					c4.8,3.3,11.6,6.7,20.1,10.3l-8.1,29.1l11,3.1l7.7-27.7c8.9,2.7,14.2,4.4,16,4.9l-7.6,27.3l11,3l7.8-28.1
					c8.3,1.2,15.1,1.7,20.5,1.5c6-0.2,12.1-1.4,18.3-3.4c8.9-3.1,16.3-7.8,22.3-14.1c6-6.2,10.2-13.7,12.6-22.2
					C249.6,227.3,250.1,220.5,249.2,214z M212.9,86.6l0.9,0.2L195.1,154c-5.9-3.9-10.8-7.2-14.7-9.8l16.9-61
					C203.1,84.2,208.3,85.3,212.9,86.6z M152.2,121c-3.8-5.8-4.8-12-3-18.5c3.8-13.8,16-20.5,36.5-20.1l-15.3,55
					C161.7,131.6,155.6,126.2,152.2,121z M160.3,264c-4.9-1.4-8.9-2.6-12.1-3.7l21.5-77.4c2.2,1.5,4.2,2.8,5.8,3.9
					c2.3,1.5,4.3,2.9,6.1,4.3l2.7,1.8l-20,72.1L160.3,264z M211.4,260.3c-4.5,3.7-10.1,6.2-16.8,7.3c-5.9,1-12.2,1-19-0.1l18.8-67.7
					c11.3,7.9,19.1,15.2,23.2,22c4.4,7.4,5.5,15.3,3.1,23.9C218.9,251.7,215.8,256.6,211.4,260.3z"/>
				<g>
					<path class="st1" d="M249.2,214c-1-6.4-3.5-12.8-7.5-19.1c-4.1-6.3-9.7-12.6-16.8-18.8c-4.1-3.7-10.7-8.7-19.7-15.1L224.5,91
						c11,4.8,19.5,10.6,25.4,17.3c3.8,4.7,5.3,8.2,4.7,10.5c-0.4,1.6-2.6,2.5-6.5,2.8c-9.5,0.9-15.3,5.3-17.5,13.2
						c-1.3,4.8-0.8,9.1,1.5,13.1c2.3,4,5.9,6.7,10.6,8c4.9,1.4,9.5,0.8,13.6-1.9c4.1-2.6,6.9-6.6,8.4-11.8
						c2.8-10.1,0.4-20.6-7.3-31.5c-2.4-3.5-5.3-6.7-8.6-9.8c-3.3-3.1-6.9-5.7-10.6-8c-3.2-1.9-7.4-4-12.5-6.4l3.6-12.8l-11-3.1
						l-3.3,11.9c-1.3-0.4-2.8-0.8-4.4-1.3c-4.5-1.2-8.4-2.2-11.8-2.8l3.4-12.3l-11-3.1l-3.9,14.1c-5.5-0.1-10.4,0.2-14.8,0.9
						c-5.4,0.8-10.6,2.3-15.7,4.4c-5.1,2.3-9.6,5.1-13.6,8.3c-4,3.2-7.3,6.9-9.9,10.9c-2.6,4-4.6,8.3-5.8,12.8
						c-3.2,11.4-1.9,22.2,3.8,32.4c5.3,9.4,14.8,19.2,28.5,29.2l-22.1,79.8c-8.4-3.3-15.5-7.3-21.3-12.1c-4.8-3.6-6.8-6.7-6.1-9.1
						c0.5-1.9,3.1-3.4,7.7-4.4c4.8-1.2,8.4-2.8,10.8-5c2.5-2.1,4.2-5,5.2-8.6c1.5-5.3,1-10-1.4-14.3c-2.4-4.3-6.1-7.2-11.3-8.6
						c-5.8-1.6-10.9-1-15.5,1.7c-4.6,2.7-7.7,7.1-9.3,13c-2.7,9.8-0.9,19.4,5.6,28.8c3.9,5.3,8.5,9.7,14,13.5
						c4.8,3.3,11.6,6.7,20.1,10.3l-8.1,29.1l11,3.1l7.7-27.7c8.9,2.7,14.2,4.4,16,4.9l-7.6,27.3l11,3l7.8-28.1
						c8.3,1.2,15.1,1.7,20.5,1.5c6-0.2,12.1-1.4,18.3-3.4c8.9-3.1,16.3-7.8,22.3-14.1c6-6.2,10.2-13.7,12.6-22.2
						C249.6,227.3,250.1,220.5,249.2,214z M212.9,86.6l0.9,0.2L195.1,154c-5.9-3.9-10.8-7.2-14.7-9.8l16.9-61
						C203.1,84.2,208.3,85.3,212.9,86.6z M152.2,121c-3.8-5.8-4.8-12-3-18.5c3.8-13.8,16-20.5,36.5-20.1l-15.3,55
						C161.7,131.6,155.6,126.2,152.2,121z M160.3,264c-4.9-1.4-8.9-2.6-12.1-3.7l21.5-77.4c2.2,1.5,4.2,2.8,5.8,3.9
						c2.3,1.5,4.3,2.9,6.1,4.3l2.7,1.8l-20,72.1L160.3,264z M211.4,260.3c-4.5,3.7-10.1,6.2-16.8,7.3c-5.9,1-12.2,1-19-0.1
						l18.8-67.7c11.3,7.9,19.1,15.2,23.2,22c4.4,7.4,5.5,15.3,3.1,23.9C218.9,251.7,215.8,256.6,211.4,260.3z"/>
				</g>
			</g>
			<g>
				<path class="st1" d="M179.8,53.8c-71.3,0-129,57.8-129,129.1c0,71.3,57.8,129.1,129,129.1s129.1-57.8,129.1-129.1
					C308.8,111.6,251.1,53.8,179.8,53.8z"/>
				<path class="st1" d="M179.8,30.9c-83.9,0-152,68-152,152c0,83.9,68,152,152,152c83.9,0,152-68,152-152
					C331.7,99,263.7,30.9,179.8,30.9z M179.8,331.4c-81.9,0-148.6-66.6-148.6-148.5c0-81.9,66.6-148.5,148.6-148.5
					S328.3,101,328.3,182.9C328.3,264.8,261.7,331.4,179.8,331.4z"/>
				<path class="st1" d="M179.8,34.3C97.9,34.3,31.2,101,31.2,182.9c0,81.9,66.6,148.5,148.6,148.5s148.5-66.6,148.5-148.5
					C328.3,101,261.7,34.3,179.8,34.3z M179.8,311.9c-71.3,0-129-57.8-129-129.1c0-71.3,57.8-129.1,129-129.1
					s129.1,57.8,129.1,129.1C308.8,254.2,251.1,311.9,179.8,311.9z"/>
				<path class="st1" d="M359.5,184.5c1-0.9,1-2.3,0-3.2l-10.7-9.3c-1-0.9-1.1-2.5-0.3-3.5l9.2-10.8c0.9-1,0.7-2.5-0.5-3.2l-12-7.6
					c-1.1-0.7-1.5-2.3-0.8-3.4l7.5-12c0.7-1.1,0.3-2.5-0.9-3.1l-13-5.7c-1.2-0.5-1.8-2-1.3-3.3l5.6-13c0.5-1.2-0.1-2.5-1.4-2.9
					l-13.7-3.7c-1.3-0.4-2.1-1.7-1.8-3l3.6-13.7c0.3-1.3-0.5-2.5-1.8-2.7l-14.1-1.6c-1.3-0.2-2.3-1.4-2.2-2.7l1.5-14.1
					c0.1-1.3-0.8-2.4-2.2-2.4l-14.2,0.5c-1.3,0.1-2.5-1-2.6-2.4l-0.6-14.2c-0.1-1.4-1.2-2.3-2.5-2l-14,2.6c-1.3,0.2-2.6-0.6-2.9-2
					L271.1,28c-0.3-1.3-1.5-2.1-2.8-1.6L254.8,31c-1.3,0.4-2.7-0.2-3.2-1.5L247,16.1c-0.5-1.3-1.8-1.8-3-1.2l-12.6,6.6
					c-1.2,0.6-2.7,0.2-3.3-1L221.3,8c-0.6-1.2-2.1-1.5-3.1-0.7l-11.4,8.4c-1.1,0.8-2.6,0.6-3.5-0.5l-8.5-11.4
					c-0.8-1.1-2.3-1.2-3.2-0.2l-10.1,10c-1,1-2.5,1-3.5,0L168,3.5c-1-0.9-2.4-0.8-3.2,0.2l-8.5,11.4c-0.8,1.1-2.4,1.3-3.5,0.5
					l-11.4-8.4c-1.1-0.8-2.5-0.5-3.1,0.7l-6.7,12.5c-0.6,1.2-2.1,1.7-3.3,1l-12.6-6.6c-1.2-0.6-2.5-0.1-3,1.2l-4.7,13.4
					c-0.4,1.3-1.9,2-3.1,1.5l-13.4-4.6C90,26,88.8,26.7,88.5,28L85.8,42c-0.3,1.3-1.6,2.2-2.9,2l-14-2.6c-1.3-0.2-2.5,0.7-2.5,2
					l-0.6,14.2c-0.1,1.4-1.2,2.4-2.6,2.4l-14.2-0.5c-1.3,0-2.3,1-2.2,2.4l1.5,14.1c0.1,1.3-0.8,2.6-2.2,2.7l-14.1,1.6
					c-1.3,0.2-2.2,1.4-1.8,2.7L34,96.7c0.3,1.3-0.4,2.7-1.8,3l-13.7,3.7c-1.3,0.4-1.9,1.7-1.4,2.9l5.6,13c0.5,1.2,0,2.7-1.3,3.3
					l-13,5.7c-1.2,0.5-1.7,1.9-1,3.1l7.5,12c0.7,1.2,0.4,2.7-0.8,3.4l-12,7.6c-1.1,0.7-1.4,2.2-0.5,3.2l9.2,10.8
					c0.9,1,0.8,2.6-0.3,3.5L0,181.3c-1,0.9-1,2.3,0,3.2l10.7,9.3c1,0.9,1.1,2.5,0.3,3.5l-9.2,10.8c-0.9,1-0.7,2.5,0.5,3.2l12,7.6
					c1.1,0.7,1.5,2.3,0.8,3.4l-7.5,12c-0.7,1.2-0.3,2.5,1,3.1l13,5.7c1.2,0.5,1.8,2,1.3,3.3l-5.6,13c-0.5,1.2,0.1,2.5,1.4,2.9
					l13.7,3.7c1.3,0.4,2.1,1.7,1.8,3l-3.6,13.7c-0.3,1.3,0.5,2.5,1.8,2.7l14.1,1.6c1.3,0.2,2.3,1.4,2.2,2.7l-1.5,14.1
					c-0.1,1.3,0.8,2.4,2.2,2.4l14.2-0.5c1.3,0,2.5,1,2.6,2.4l0.6,14.2c0,1.4,1.2,2.3,2.5,2l14-2.6c1.3-0.2,2.6,0.6,2.9,2l2.7,13.9
					c0.3,1.3,1.5,2.1,2.8,1.6l13.4-4.6c1.3-0.4,2.7,0.2,3.1,1.5l4.7,13.4c0.4,1.3,1.8,1.8,3,1.2l12.6-6.6c1.2-0.6,2.7-0.2,3.3,1
					l6.7,12.5c0.6,1.2,2.1,1.5,3.1,0.7l11.4-8.4c1.1-0.8,2.6-0.6,3.5,0.5l8.5,11.4c0.8,1.1,2.3,1.2,3.2,0.2l10.1-10
					c1-0.9,2.5-0.9,3.5,0l10.1,10c1,0.9,2.4,0.8,3.2-0.2l8.5-11.4c0.8-1.1,2.4-1.3,3.5-0.5l11.4,8.4c1.1,0.8,2.5,0.5,3.1-0.7
					l6.7-12.5c0.6-1.2,2.1-1.7,3.3-1l12.6,6.6c1.2,0.6,2.5,0.1,3-1.2l4.7-13.4c0.5-1.3,1.9-2,3.2-1.5l13.4,4.6
					c1.3,0.4,2.5-0.3,2.8-1.6l2.7-13.9c0.3-1.3,1.6-2.2,2.9-2l14,2.6c1.3,0.2,2.5-0.7,2.5-2l0.6-14.2c0.1-1.4,1.2-2.4,2.6-2.4
					l14.2,0.5c1.3,0,2.3-1,2.2-2.4l-1.5-14.1c-0.1-1.3,0.8-2.6,2.2-2.7l14.1-1.6c1.3-0.2,2.2-1.4,1.8-2.7l-3.6-13.7
					c-0.3-1.3,0.4-2.7,1.8-3l13.7-3.7c1.3-0.3,1.9-1.7,1.4-2.9l-5.6-13c-0.5-1.2,0-2.7,1.3-3.3l13-5.7c1.2-0.5,1.7-1.9,0.9-3.1
					l-7.5-12c-0.7-1.2-0.4-2.7,0.8-3.4l12-7.6c1.1-0.7,1.4-2.2,0.5-3.2l-9.2-10.8c-0.9-1-0.8-2.6,0.3-3.5L359.5,184.5z M179.8,349.2
					c-91.9,0-166.3-74.5-166.3-166.3C13.4,91,87.9,16.5,179.8,16.5c91.9,0,166.3,74.5,166.3,166.3
					C346.1,274.7,271.6,349.2,179.8,349.2z"/>
				<path class="st1" d="M179.8,19.9c-89.9,0-163,73.1-163,163c0,89.9,73.1,163,163,163s163-73.1,163-163
					C342.7,93,269.6,19.9,179.8,19.9z M179.8,334.8c-83.9,0-152-68-152-152c0-83.9,68-152,152-152c83.9,0,152,68,152,152
					C331.7,266.8,263.7,334.8,179.8,334.8z"/>
			</g>
		</g>
		<g>
			<g>
				<g>
					<path class="st2" d="M249.2,214c-1-6.4-3.5-12.8-7.5-19.1c-4.1-6.3-9.7-12.6-16.8-18.8c-4.1-3.7-10.7-8.7-19.7-15.1L224.5,91
						c11,4.8,19.5,10.6,25.4,17.3c3.8,4.7,5.3,8.2,4.7,10.5c-0.4,1.6-2.6,2.5-6.5,2.8c-9.5,0.9-15.3,5.3-17.5,13.2
						c-1.3,4.8-0.8,9.1,1.5,13.1c2.3,4,5.9,6.7,10.6,8c4.9,1.4,9.5,0.8,13.6-1.9c4.1-2.6,6.9-6.6,8.4-11.8
						c2.8-10.1,0.4-20.6-7.3-31.5c-2.4-3.5-5.3-6.7-8.6-9.8c-3.3-3.1-6.9-5.7-10.6-8c-3.2-1.9-7.4-4-12.5-6.4l3.6-12.8l-11-3.1
						l-3.3,11.9c-1.3-0.4-2.8-0.8-4.4-1.3c-4.5-1.2-8.4-2.2-11.8-2.8l3.4-12.3l-11-3.1l-3.9,14.1c-5.5-0.1-10.4,0.2-14.8,0.9
						c-5.4,0.8-10.6,2.3-15.7,4.4c-5.1,2.3-9.6,5.1-13.6,8.3c-4,3.2-7.3,6.9-9.9,10.9c-2.6,4-4.6,8.3-5.8,12.8
						c-3.2,11.4-1.9,22.2,3.8,32.4c5.3,9.4,14.8,19.2,28.5,29.2l-22.1,79.8c-8.4-3.3-15.5-7.3-21.3-12.1c-4.8-3.6-6.8-6.7-6.1-9.1
						c0.5-1.9,3.1-3.4,7.7-4.4c4.8-1.2,8.4-2.8,10.8-5c2.5-2.1,4.2-5,5.2-8.6c1.5-5.3,1-10-1.4-14.3c-2.4-4.3-6.1-7.2-11.3-8.6
						c-5.8-1.6-10.9-1-15.5,1.7c-4.6,2.7-7.7,7.1-9.3,13c-2.7,9.8-0.9,19.4,5.6,28.8c3.9,5.3,8.5,9.7,14,13.5
						c4.8,3.3,11.6,6.7,20.1,10.3l-8.1,29.1l11,3.1l7.7-27.7c8.9,2.7,14.2,4.4,16,4.9l-7.6,27.3l11,3l7.8-28.1
						c8.3,1.2,15.1,1.7,20.5,1.5c6-0.2,12.1-1.4,18.3-3.4c8.9-3.1,16.3-7.8,22.3-14.1c6-6.2,10.2-13.7,12.6-22.2
						C249.6,227.3,250.1,220.5,249.2,214z M212.9,86.6l0.9,0.2L195.1,154c-5.9-3.9-10.8-7.2-14.7-9.8l16.9-61
						C203.1,84.2,208.3,85.3,212.9,86.6z M152.2,121c-3.8-5.8-4.8-12-3-18.5c3.8-13.8,16-20.5,36.5-20.1l-15.3,55
						C161.7,131.6,155.6,126.2,152.2,121z M160.3,264c-4.9-1.4-8.9-2.6-12.1-3.7l21.5-77.4c2.2,1.5,4.2,2.8,5.8,3.9
						c2.3,1.5,4.3,2.9,6.1,4.3l2.7,1.8l-20,72.1L160.3,264z M211.4,260.3c-4.5,3.7-10.1,6.2-16.8,7.3c-5.9,1-12.2,1-19-0.1
						l18.8-67.7c11.3,7.9,19.1,15.2,23.2,22c4.4,7.4,5.5,15.3,3.1,23.9C218.9,251.7,215.8,256.6,211.4,260.3z"/>
				</g>
			</g>
			<g>
				<path class="st2" d="M179.8,34.3C97.9,34.3,31.2,101,31.2,182.9c0,81.9,66.6,148.5,148.6,148.5s148.5-66.6,148.5-148.5
					C328.3,101,261.7,34.3,179.8,34.3z M179.8,311.9c-71.3,0-129-57.8-129-129.1c0-71.3,57.8-129.1,129-129.1
					s129.1,57.8,129.1,129.1C308.8,254.2,251.1,311.9,179.8,311.9z"/>
				<path class="st2" d="M359.5,184.5c1-0.9,1-2.3,0-3.2l-10.7-9.3c-1-0.9-1.1-2.5-0.3-3.5l9.2-10.8c0.9-1,0.7-2.5-0.5-3.2l-12-7.6
					c-1.1-0.7-1.5-2.3-0.8-3.4l7.5-12c0.7-1.1,0.3-2.5-0.9-3.1l-13-5.7c-1.2-0.5-1.8-2-1.3-3.3l5.6-13c0.5-1.2-0.1-2.5-1.4-2.9
					l-13.7-3.7c-1.3-0.4-2.1-1.7-1.8-3l3.6-13.7c0.3-1.3-0.5-2.5-1.8-2.7l-14.1-1.6c-1.3-0.2-2.3-1.4-2.2-2.7l1.5-14.1
					c0.1-1.3-0.8-2.4-2.2-2.4l-14.2,0.5c-1.3,0.1-2.5-1-2.6-2.4l-0.6-14.2c-0.1-1.4-1.2-2.3-2.5-2l-14,2.6c-1.3,0.2-2.6-0.6-2.9-2
					L271.1,28c-0.3-1.3-1.5-2.1-2.8-1.6L254.8,31c-1.3,0.4-2.7-0.2-3.2-1.5L247,16.1c-0.5-1.3-1.8-1.8-3-1.2l-12.6,6.6
					c-1.2,0.6-2.7,0.2-3.3-1L221.3,8c-0.6-1.2-2.1-1.5-3.1-0.7l-11.4,8.4c-1.1,0.8-2.6,0.6-3.5-0.5l-8.5-11.4
					c-0.8-1.1-2.3-1.2-3.2-0.2l-10.1,10c-1,1-2.5,1-3.5,0L168,3.5c-1-0.9-2.4-0.8-3.2,0.2l-8.5,11.4c-0.8,1.1-2.4,1.3-3.5,0.5
					l-11.4-8.4c-1.1-0.8-2.5-0.5-3.1,0.7l-6.7,12.5c-0.6,1.2-2.1,1.7-3.3,1l-12.6-6.6c-1.2-0.6-2.5-0.1-3,1.2l-4.7,13.4
					c-0.4,1.3-1.9,2-3.1,1.5l-13.4-4.6C90,26,88.8,26.7,88.5,28L85.8,42c-0.3,1.3-1.6,2.2-2.9,2l-14-2.6c-1.3-0.2-2.5,0.7-2.5,2
					l-0.6,14.2c-0.1,1.4-1.2,2.4-2.6,2.4l-14.2-0.5c-1.3,0-2.3,1-2.2,2.4l1.5,14.1c0.1,1.3-0.8,2.6-2.2,2.7l-14.1,1.6
					c-1.3,0.2-2.2,1.4-1.8,2.7L34,96.7c0.3,1.3-0.4,2.7-1.8,3l-13.7,3.7c-1.3,0.4-1.9,1.7-1.4,2.9l5.6,13c0.5,1.2,0,2.7-1.3,3.3
					l-13,5.7c-1.2,0.5-1.7,1.9-1,3.1l7.5,12c0.7,1.2,0.4,2.7-0.8,3.4l-12,7.6c-1.1,0.7-1.4,2.2-0.5,3.2l9.2,10.8
					c0.9,1,0.8,2.6-0.3,3.5L0,181.3c-1,0.9-1,2.3,0,3.2l10.7,9.3c1,0.9,1.1,2.5,0.3,3.5l-9.2,10.8c-0.9,1-0.7,2.5,0.5,3.2l12,7.6
					c1.1,0.7,1.5,2.3,0.8,3.4l-7.5,12c-0.7,1.2-0.3,2.5,1,3.1l13,5.7c1.2,0.5,1.8,2,1.3,3.3l-5.6,13c-0.5,1.2,0.1,2.5,1.4,2.9
					l13.7,3.7c1.3,0.4,2.1,1.7,1.8,3l-3.6,13.7c-0.3,1.3,0.5,2.5,1.8,2.7l14.1,1.6c1.3,0.2,2.3,1.4,2.2,2.7l-1.5,14.1
					c-0.1,1.3,0.8,2.4,2.2,2.4l14.2-0.5c1.3,0,2.5,1,2.6,2.4l0.6,14.2c0,1.4,1.2,2.3,2.5,2l14-2.6c1.3-0.2,2.6,0.6,2.9,2l2.7,13.9
					c0.3,1.3,1.5,2.1,2.8,1.6l13.4-4.6c1.3-0.4,2.7,0.2,3.1,1.5l4.7,13.4c0.4,1.3,1.8,1.8,3,1.2l12.6-6.6c1.2-0.6,2.7-0.2,3.3,1
					l6.7,12.5c0.6,1.2,2.1,1.5,3.1,0.7l11.4-8.4c1.1-0.8,2.6-0.6,3.5,0.5l8.5,11.4c0.8,1.1,2.3,1.2,3.2,0.2l10.1-10
					c1-0.9,2.5-0.9,3.5,0l10.1,10c1,0.9,2.4,0.8,3.2-0.2l8.5-11.4c0.8-1.1,2.4-1.3,3.5-0.5l11.4,8.4c1.1,0.8,2.5,0.5,3.1-0.7
					l6.7-12.5c0.6-1.2,2.1-1.7,3.3-1l12.6,6.6c1.2,0.6,2.5,0.1,3-1.2l4.7-13.4c0.5-1.3,1.9-2,3.2-1.5l13.4,4.6
					c1.3,0.4,2.5-0.3,2.8-1.6l2.7-13.9c0.3-1.3,1.6-2.2,2.9-2l14,2.6c1.3,0.2,2.5-0.7,2.5-2l0.6-14.2c0.1-1.4,1.2-2.4,2.6-2.4
					l14.2,0.5c1.3,0,2.3-1,2.2-2.4l-1.5-14.1c-0.1-1.3,0.8-2.6,2.2-2.7l14.1-1.6c1.3-0.2,2.2-1.4,1.8-2.7l-3.6-13.7
					c-0.3-1.3,0.4-2.7,1.8-3l13.7-3.7c1.3-0.3,1.9-1.7,1.4-2.9l-5.6-13c-0.5-1.2,0-2.7,1.3-3.3l13-5.7c1.2-0.5,1.7-1.9,0.9-3.1
					l-7.5-12c-0.7-1.2-0.4-2.7,0.8-3.4l12-7.6c1.1-0.7,1.4-2.2,0.5-3.2l-9.2-10.8c-0.9-1-0.8-2.6,0.3-3.5L359.5,184.5z M179.8,349.2
					c-91.9,0-166.3-74.5-166.3-166.3C13.4,91,87.9,16.5,179.8,16.5c91.9,0,166.3,74.5,166.3,166.3
					C346.1,274.7,271.6,349.2,179.8,349.2z"/>
				<path class="st2" d="M179.8,19.9c-89.9,0-163,73.1-163,163c0,89.9,73.1,163,163,163s163-73.1,163-163
					C342.7,93,269.6,19.9,179.8,19.9z M179.8,334.8c-83.9,0-152-68-152-152c0-83.9,68-152,152-152c83.9,0,152,68,152,152
					C331.7,266.8,263.7,334.8,179.8,334.8z"/>
			</g>
		</g>
	</g>
</g>
</svg>
